<mxfile host="app.diagrams.net" modified="2023-03-01T00:03:15.491Z" agent="5.0 (Windows NT 10.0; Win64; x64) AppleWebKit/537.36 (KHTML, like Gecko) Chrome/110.0.0.0 Safari/537.36" etag="V_QGjEIE9RbLpjxXGNE7" version="20.8.23" type="github">
  <diagram name="Página-1" id="f2YqNZJZJtj-QtbyF3Op">
    <mxGraphModel dx="880" dy="522" grid="1" gridSize="10" guides="1" tooltips="1" connect="1" arrows="1" fold="1" page="1" pageScale="1" pageWidth="827" pageHeight="1169" math="0" shadow="0">
      <root>
        <mxCell id="0" />
        <mxCell id="1" parent="0" />
        <mxCell id="Jzt5wZQzeHrV1ZpHRwkZ-1" value="Médico" style="rounded=0;whiteSpace=wrap;html=1;" vertex="1" parent="1">
          <mxGeometry x="40" y="40" width="120" height="60" as="geometry" />
        </mxCell>
        <mxCell id="Jzt5wZQzeHrV1ZpHRwkZ-2" value="" style="endArrow=none;html=1;rounded=0;exitX=1;exitY=0.5;exitDx=0;exitDy=0;" edge="1" parent="1" source="Jzt5wZQzeHrV1ZpHRwkZ-1">
          <mxGeometry width="50" height="50" relative="1" as="geometry">
            <mxPoint x="210" y="300" as="sourcePoint" />
            <mxPoint x="200" y="70" as="targetPoint" />
          </mxGeometry>
        </mxCell>
        <mxCell id="Jzt5wZQzeHrV1ZpHRwkZ-3" value="Consulta" style="rhombus;whiteSpace=wrap;html=1;" vertex="1" parent="1">
          <mxGeometry x="200" y="30" width="110" height="80" as="geometry" />
        </mxCell>
        <mxCell id="Jzt5wZQzeHrV1ZpHRwkZ-4" value="" style="endArrow=none;dashed=1;html=1;rounded=0;exitX=1;exitY=0.5;exitDx=0;exitDy=0;" edge="1" parent="1" source="Jzt5wZQzeHrV1ZpHRwkZ-3">
          <mxGeometry width="50" height="50" relative="1" as="geometry">
            <mxPoint x="210" y="300" as="sourcePoint" />
            <mxPoint x="360" y="70" as="targetPoint" />
          </mxGeometry>
        </mxCell>
        <mxCell id="Jzt5wZQzeHrV1ZpHRwkZ-5" value="Paciente" style="rounded=0;whiteSpace=wrap;html=1;" vertex="1" parent="1">
          <mxGeometry x="360" y="40" width="120" height="60" as="geometry" />
        </mxCell>
        <mxCell id="Jzt5wZQzeHrV1ZpHRwkZ-6" value="N" style="text;html=1;strokeColor=none;fillColor=none;align=center;verticalAlign=middle;whiteSpace=wrap;rounded=0;" vertex="1" parent="1">
          <mxGeometry x="180" y="30" width="60" height="30" as="geometry" />
        </mxCell>
        <mxCell id="Jzt5wZQzeHrV1ZpHRwkZ-7" value="N" style="text;html=1;strokeColor=none;fillColor=none;align=center;verticalAlign=middle;whiteSpace=wrap;rounded=0;" vertex="1" parent="1">
          <mxGeometry x="280" y="30" width="60" height="30" as="geometry" />
        </mxCell>
        <mxCell id="Jzt5wZQzeHrV1ZpHRwkZ-8" value="1" style="text;html=1;strokeColor=none;fillColor=none;align=center;verticalAlign=middle;whiteSpace=wrap;rounded=0;" vertex="1" parent="1">
          <mxGeometry x="140" y="30" width="60" height="30" as="geometry" />
        </mxCell>
        <mxCell id="Jzt5wZQzeHrV1ZpHRwkZ-9" value="1" style="text;html=1;strokeColor=none;fillColor=none;align=center;verticalAlign=middle;whiteSpace=wrap;rounded=0;" vertex="1" parent="1">
          <mxGeometry x="320" y="30" width="60" height="30" as="geometry" />
        </mxCell>
        <mxCell id="Jzt5wZQzeHrV1ZpHRwkZ-14" value="Medico" style="swimlane;whiteSpace=wrap;html=1;" vertex="1" parent="1">
          <mxGeometry x="20" y="140" width="140" height="110" as="geometry" />
        </mxCell>
        <mxCell id="Jzt5wZQzeHrV1ZpHRwkZ-15" value="ID (PK)&lt;br&gt;Nome&amp;nbsp;&lt;br&gt;Paciente (FK)&lt;br&gt;DtAgenda(FK)&lt;br&gt;Horario(FK)" style="text;html=1;align=center;verticalAlign=middle;resizable=0;points=[];autosize=1;strokeColor=none;fillColor=none;" vertex="1" parent="Jzt5wZQzeHrV1ZpHRwkZ-14">
          <mxGeometry x="-5" y="20" width="100" height="90" as="geometry" />
        </mxCell>
        <mxCell id="Jzt5wZQzeHrV1ZpHRwkZ-24" value="" style="endArrow=classic;html=1;rounded=0;entryX=-0.01;entryY=0.4;entryDx=0;entryDy=0;entryPerimeter=0;" edge="1" parent="Jzt5wZQzeHrV1ZpHRwkZ-14" target="Jzt5wZQzeHrV1ZpHRwkZ-17">
          <mxGeometry width="50" height="50" relative="1" as="geometry">
            <mxPoint x="90" y="80" as="sourcePoint" />
            <mxPoint x="140" y="30" as="targetPoint" />
          </mxGeometry>
        </mxCell>
        <mxCell id="Jzt5wZQzeHrV1ZpHRwkZ-16" value="Consulta" style="swimlane;whiteSpace=wrap;html=1;" vertex="1" parent="1">
          <mxGeometry x="200" y="140" width="140" height="110" as="geometry" />
        </mxCell>
        <mxCell id="Jzt5wZQzeHrV1ZpHRwkZ-17" value="ID (PK)&lt;br&gt;DtAgenda(FK)&lt;br&gt;Horario(FK)&lt;br&gt;Confirmado" style="text;html=1;align=center;verticalAlign=middle;resizable=0;points=[];autosize=1;strokeColor=none;fillColor=none;" vertex="1" parent="Jzt5wZQzeHrV1ZpHRwkZ-16">
          <mxGeometry x="10" y="30" width="100" height="70" as="geometry" />
        </mxCell>
        <mxCell id="Jzt5wZQzeHrV1ZpHRwkZ-18" value="Paciente" style="swimlane;whiteSpace=wrap;html=1;" vertex="1" parent="1">
          <mxGeometry x="390" y="140" width="140" height="140" as="geometry" />
        </mxCell>
        <mxCell id="Jzt5wZQzeHrV1ZpHRwkZ-19" value="ID (PK)&lt;br&gt;Paciente&lt;br&gt;DtNasc&lt;br&gt;Nome_Medico(FK)&lt;br&gt;DtAgenda&lt;br&gt;Horario&lt;br&gt;Tipo" style="text;html=1;align=center;verticalAlign=middle;resizable=0;points=[];autosize=1;strokeColor=none;fillColor=none;" vertex="1" parent="Jzt5wZQzeHrV1ZpHRwkZ-18">
          <mxGeometry x="10" y="30" width="120" height="110" as="geometry" />
        </mxCell>
        <mxCell id="Jzt5wZQzeHrV1ZpHRwkZ-25" value="" style="endArrow=classic;html=1;rounded=0;exitX=0.95;exitY=0.889;exitDx=0;exitDy=0;exitPerimeter=0;" edge="1" parent="1" source="Jzt5wZQzeHrV1ZpHRwkZ-15" target="Jzt5wZQzeHrV1ZpHRwkZ-17">
          <mxGeometry width="50" height="50" relative="1" as="geometry">
            <mxPoint x="120" y="230" as="sourcePoint" />
            <mxPoint x="219" y="208" as="targetPoint" />
          </mxGeometry>
        </mxCell>
        <mxCell id="Jzt5wZQzeHrV1ZpHRwkZ-26" value="" style="endArrow=classic;html=1;rounded=0;exitX=1;exitY=0.457;exitDx=0;exitDy=0;exitPerimeter=0;entryX=0.083;entryY=0.636;entryDx=0;entryDy=0;entryPerimeter=0;" edge="1" parent="1" source="Jzt5wZQzeHrV1ZpHRwkZ-17" target="Jzt5wZQzeHrV1ZpHRwkZ-19">
          <mxGeometry width="50" height="50" relative="1" as="geometry">
            <mxPoint x="390" y="150" as="sourcePoint" />
            <mxPoint x="440" y="100" as="targetPoint" />
          </mxGeometry>
        </mxCell>
        <mxCell id="Jzt5wZQzeHrV1ZpHRwkZ-27" value="" style="endArrow=classic;html=1;rounded=0;entryX=0;entryY=0.764;entryDx=0;entryDy=0;entryPerimeter=0;" edge="1" parent="1" target="Jzt5wZQzeHrV1ZpHRwkZ-19">
          <mxGeometry width="50" height="50" relative="1" as="geometry">
            <mxPoint x="291" y="212" as="sourcePoint" />
            <mxPoint x="390" y="190" as="targetPoint" />
          </mxGeometry>
        </mxCell>
      </root>
    </mxGraphModel>
  </diagram>
</mxfile>
